<svg width="32" height="32" viewBox="0 0 32 32" fill="none" xmlns="http://www.w3.org/2000/svg">
<g clip-path="url(#clip0_19_1269)">
<path d="M28.7378 5.33334C28.6166 5.32085 28.4945 5.32085 28.3733 5.33334H3.48445C3.32493 5.3358 3.16647 5.35971 3.01334 5.40445L15.8578 18.1956L28.7378 5.33334Z" fill="white"/>
<path d="M30.0533 6.56885L17.1111 19.4577C16.778 19.7888 16.3274 19.9747 15.8578 19.9747C15.3881 19.9747 14.9375 19.7888 14.6044 19.4577L1.77777 6.66663C1.73834 6.81155 1.71743 6.96089 1.71555 7.11107V24.8888C1.71555 25.3603 1.90285 25.8125 2.23624 26.1459C2.56964 26.4793 3.02183 26.6666 3.49332 26.6666H28.3822C28.8537 26.6666 29.3059 26.4793 29.6393 26.1459C29.9727 25.8125 30.16 25.3603 30.16 24.8888V7.11107C30.1529 6.92587 30.1169 6.74292 30.0533 6.56885ZM4.7111 24.8888H3.47555V23.6177L9.93777 17.2088L11.1911 18.4622L4.7111 24.8888ZM28.3644 24.8888H27.12L20.64 18.4622L21.8933 17.2088L28.3555 23.6177L28.3644 24.8888Z" fill="white"/>
</g>
<defs>
<clipPath id="clip0_19_1269">
<rect width="32" height="32" fill="white"/>
</clipPath>
</defs>
</svg>
