<svg width="24" height="24" viewBox="0 0 24 24" fill="none" xmlns="http://www.w3.org/2000/svg">
<path d="M21.64 16.3466L18.2533 15.96C17.8551 15.9132 17.4515 15.9573 17.0727 16.0889C16.694 16.2206 16.35 16.4363 16.0667 16.72L13.6133 19.1733C9.82825 17.2483 6.7517 14.1717 4.82666 10.3866L7.29333 7.91997C7.86666 7.34664 8.14666 6.54664 8.05333 5.73331L7.66666 2.37331C7.59107 1.72288 7.27892 1.12296 6.78964 0.687771C6.30037 0.252586 5.66814 0.0125293 5.01333 0.0133076H2.70666C1.19999 0.0133076 -0.0533402 1.26664 0.0399932 2.77331C0.74666 14.16 9.85333 23.2533 21.2267 23.96C22.7333 24.0533 23.9867 22.8 23.9867 21.2933V18.9866C24 17.64 22.9867 16.5066 21.64 16.3466Z" fill="white"/>
</svg>
